<svg xmlns="http://www.w3.org/2000/svg" width="60" height="60" viewBox="0 0 60 60" fill="none"><circle cx="30" cy="30" r="30" fill="#F7E4E5"></circle><g clip-path="url(#clip0_54_2023)"><path d="M29.4793 40.9167H18.521C18.3606 40.9167 18.2096 40.8427 18.1106 40.7167C18.0116 40.5896 17.9762 40.426 18.0148 40.2698L18.5773 38.0094C18.8606 36.8854 19.6825 36 20.7741 35.6406L24.9596 34.2458C25.5804 33.9865 25.9679 33.051 26.0075 31.6719C25.5283 31.2365 24.5002 30.174 24.5002 29.0844C24.5002 28.7021 24.3721 28.624 24.371 28.6229C24.2127 28.5802 24.1293 28.4823 24.0679 28.3292C24.0158 28.1979 23.5627 27.0354 23.5627 26.25C23.5627 26.2083 23.5679 26.1667 23.5783 26.126C23.6439 25.8563 23.8023 25.5854 24.0408 25.4208C24.0471 25.2958 24.0543 25.1573 24.0627 25.0031C24.0887 24.4885 24.1252 23.8021 24.1252 22.9479C24.1252 20.9938 26.5148 18 29.4585 18C32.1221 18 33.4116 19.4188 33.6252 20.3354C34.2762 20.6958 34.8439 21.2906 34.8439 22.9479V25.424C35.1023 25.6021 35.2616 25.8875 35.3283 26.0844C35.346 26.1375 35.3543 26.1938 35.3543 26.25C35.3543 26.5375 35.121 26.7917 34.8335 26.7917C34.5721 26.7917 34.3564 26.6167 34.3189 26.3698C34.2991 26.3333 34.2741 26.2969 34.2575 26.2844C33.971 26.2844 33.8012 26.0688 33.8012 25.7813V22.9479C33.8012 21.5885 33.3648 21.3688 33.1043 21.2385C32.9471 21.1583 32.6148 20.9917 32.6148 20.5938C32.596 20.2802 31.7189 19.0417 29.4585 19.0417C26.9793 19.0417 25.1668 21.6104 25.1668 22.9479C25.1668 23.825 25.1304 24.5292 25.1012 25.0573C25.0866 25.3583 25.0731 25.601 25.0731 25.7813C25.0731 26.051 24.8679 26.2729 24.6054 26.3C24.6221 26.7271 24.8356 27.3969 24.9721 27.7708C25.2512 27.9688 25.5418 28.3729 25.5418 29.0833C25.5418 29.6708 26.2273 30.5073 26.8648 31.0365C26.9835 31.1354 27.0523 31.2823 27.0523 31.4375C27.0523 33.4146 26.4387 34.7583 25.3241 35.2208L21.1023 36.6302C20.3481 36.8792 19.7825 37.4896 19.5877 38.2635L19.1877 39.875H29.4793C29.7668 39.875 30.0002 40.1083 30.0002 40.3958C30.0002 40.6833 29.7668 40.9167 29.4793 40.9167Z" fill="#C8666C"></path><path d="M36.75 43.0001C36.6812 43.0001 36.6125 42.9866 36.5479 42.9584C36.3 42.8553 30.5 40.348 30.5 35.2251V30.872C30.5 30.6491 30.6427 30.4501 30.8542 30.3782L36.5833 28.4438C36.6917 28.4074 36.8094 28.4074 36.9167 28.4438L42.6458 30.3782C42.8573 30.4491 43 30.648 43 30.872V35.2251C43 40.348 37.2 42.8553 36.9521 42.9595C36.8875 42.9866 36.8187 43.0001 36.75 43.0001ZM31.5417 31.2459V35.2251C31.5417 39.1678 35.7656 41.4314 36.75 41.9064C37.7333 41.4303 41.9583 39.1584 41.9583 35.2251V31.2459L36.75 29.4876L31.5417 31.2459Z" fill="#C8666C"></path><path d="M36.2292 37.7918C36.2198 37.7918 36.2094 37.7918 36.201 37.7907C36.0521 37.7824 35.9156 37.7116 35.8229 37.5959L33.7396 34.9918C33.5604 34.7668 33.5958 34.4397 33.8208 34.2595C34.0469 34.0803 34.3739 34.1178 34.5531 34.3407L36.2719 36.4907L39.5062 33.2563C39.7094 33.0532 40.0396 33.0532 40.2427 33.2563C40.4458 33.4595 40.4458 33.7897 40.2427 33.9928L36.5969 37.6386C36.5 37.7376 36.3667 37.7918 36.2292 37.7918Z" fill="#C8666C"></path></g><defs><clipPath id="clip0_54_2023"><rect width="25" height="25" fill="white" transform="translate(18 18)"></rect></clipPath></defs></svg>