<svg xmlns="http://www.w3.org/2000/svg" width="60" height="60" viewBox="0 0 60 60" fill="none"><circle cx="30" cy="30" r="30" fill="#E6F4F7"></circle><path d="M30.9995 16.1719C30.676 16.1719 30.4136 16.4342 30.4136 16.7578V20.2437C30.4136 20.5673 30.676 20.8297 30.9995 20.8297C31.3231 20.8297 31.5854 20.5673 31.5854 20.2437V16.7578C31.5854 16.4342 31.3231 16.1719 30.9995 16.1719Z" fill="#81C6D6"></path><path d="M27.6794 21.1747L26.2774 19.774C26.0484 19.5452 25.6775 19.5454 25.4488 19.7743C25.2201 20.0033 25.2202 20.3742 25.4491 20.603L26.8511 22.0037C26.9655 22.118 27.1154 22.1751 27.2652 22.1751C27.4153 22.1751 27.5653 22.1178 27.6797 22.0033C27.9084 21.7744 27.9082 21.4034 27.6794 21.1747Z" fill="#81C6D6"></path><path d="M36.5511 19.7754C36.3222 19.5466 35.9512 19.5468 35.7224 19.7757L34.232 21.2673C34.0033 21.4962 34.0034 21.8672 34.2323 22.0959C34.3467 22.2103 34.4967 22.2674 34.6465 22.2674C34.7966 22.2674 34.9466 22.2101 35.061 22.0956L36.5515 20.604C36.7801 20.3751 36.78 20.0041 36.5511 19.7754Z" fill="#81C6D6"></path><path d="M42.1621 31.6407H41.6893C42.0752 31.1377 42.3053 30.5092 42.3053 29.8277V29.0007C42.3053 27.3548 40.9662 26.0157 39.3203 26.0157C37.6744 26.0157 36.3354 27.3548 36.3354 29.0007V29.6435L31.9273 25.2354C31.6827 24.9908 31.3229 24.9123 31.0001 25.0289C30.6773 24.9123 30.3174 24.9908 30.0728 25.2354L25.6647 29.6435V29.0007C25.6646 27.3548 24.3256 26.0157 22.6797 26.0157C21.0338 26.0157 19.6947 27.3548 19.6947 29.0007V29.8276C19.6947 30.5092 19.9248 31.1376 20.3107 31.6407H19.8379C17.7217 31.6407 16 33.3624 16 35.4786V43.2423C16 43.5659 16.2624 43.8282 16.5859 43.8282H19.0615C19.1201 43.8282 19.1766 43.8194 19.23 43.8034C19.2834 43.8194 19.3398 43.8282 19.3984 43.8282H25.9609C26.2845 43.8282 26.5469 43.5659 26.5469 43.2423V41.2501C26.5469 40.9265 26.2845 40.6642 25.9609 40.6642C25.6374 40.6642 25.375 40.9265 25.375 41.2501V42.6564H19.9844V35.9798C19.9844 35.6562 19.722 35.3938 19.3984 35.3938C19.0749 35.3938 18.8125 35.6562 18.8125 35.9798V42.6564H17.1719V35.4786C17.1719 34.0086 18.3678 32.8126 19.8379 32.8126H23.9102C24.0714 32.8126 24.2174 32.7474 24.3234 32.642C24.3238 32.6416 24.3241 32.6414 24.3245 32.641L30.4106 26.5549C30.3707 27.7718 29.9922 28.9438 29.3098 29.9573L25.475 35.6525C25.4099 35.7493 25.3751 35.8632 25.3751 35.9798V36.6212C25.3751 36.9448 25.6374 37.2071 25.961 37.2071C26.2846 37.2071 26.5469 36.9448 26.5469 36.6212V36.1586L30.2819 30.6118C30.5672 30.188 30.8065 29.7402 31.0001 29.2754C31.1936 29.7402 31.4328 30.188 31.7182 30.6118L35.4531 36.1586V43.2423C35.4531 43.5659 35.7155 43.8282 36.0391 43.8282H42.6016C42.6602 43.8282 42.7166 43.8194 42.77 43.8034C42.8234 43.8194 42.8799 43.8282 42.9385 43.8282H45.4141C45.7376 43.8282 46 43.5659 46 43.2423V35.4786C46 33.3624 44.2783 31.6407 42.1621 31.6407ZM24.4928 29.8276C24.4928 30.8274 23.6795 31.6407 22.6797 31.6407C21.6799 31.6407 20.8666 30.8274 20.8666 29.8277V29.0007C20.8666 28.0009 21.68 27.1876 22.6797 27.1876C23.6794 27.1876 24.4928 28.0009 24.4928 29.0007V29.8276ZM37.5072 29.0007C37.5072 28.0009 38.3206 27.1876 39.3203 27.1876C40.32 27.1876 41.1334 28.0009 41.1334 29.0007V29.8276C41.1334 30.8274 40.3201 31.6407 39.3203 31.6407C38.3205 31.6407 37.5072 30.8274 37.5072 29.8277V29.0007ZM44.8281 42.6564H43.1875V38.3204C43.1875 37.9968 42.9251 37.7345 42.6016 37.7345C42.278 37.7345 42.0156 37.9968 42.0156 38.3204V42.6564H36.625V35.9798C36.625 35.8632 36.5902 35.7492 36.5251 35.6525L32.6903 29.9574C32.0079 28.9439 31.6294 27.7718 31.5895 26.555L37.6755 32.641C37.6833 32.6488 37.6905 32.6553 37.6976 32.6611C37.8014 32.755 37.9388 32.8127 38.0898 32.8127H42.1621C43.6322 32.8127 44.8281 34.0087 44.8281 35.4787V42.6564Z" fill="#81C6D6"></path><path d="M43.0158 35.5652C42.9068 35.4563 42.7557 35.3936 42.6016 35.3936C42.4475 35.3936 42.2963 35.4563 42.1873 35.5652C42.0783 35.6742 42.0156 35.8254 42.0156 35.9795C42.0156 36.1336 42.0783 36.2848 42.1873 36.3938C42.2963 36.5027 42.4475 36.5654 42.6016 36.5654C42.7557 36.5654 42.9068 36.5027 43.0158 36.3938C43.1247 36.2848 43.1875 36.1336 43.1875 35.9795C43.1875 35.8254 43.1248 35.6748 43.0158 35.5652Z" fill="#81C6D6"></path><path d="M26.3751 38.6678C26.2662 38.5588 26.115 38.4961 25.9609 38.4961C25.8068 38.4961 25.6557 38.5588 25.5467 38.6678C25.4377 38.7768 25.375 38.9279 25.375 39.082C25.375 39.2361 25.4376 39.3873 25.5467 39.4963C25.6557 39.6053 25.8068 39.668 25.9609 39.668C26.115 39.668 26.2662 39.6053 26.3751 39.4963C26.4841 39.3873 26.5469 39.2361 26.5469 39.082C26.5469 38.9279 26.4842 38.7768 26.3751 38.6678Z" fill="#81C6D6"></path></svg>