<svg xmlns="http://www.w3.org/2000/svg" width="60" height="60" viewBox="0 0 60 60" fill="none"><circle cx="30" cy="30" r="30" fill="#E7F7EC"></circle><g clip-path="url(#clip0_54_2083)"><path d="M36.7969 20.2734C36.7969 19.3042 36.0083 18.5156 35.0391 18.5156C34.0698 18.5156 33.2812 19.3042 33.2812 20.2734C33.2812 21.2427 34.0698 22.0313 35.0391 22.0313C36.0083 22.0313 36.7969 21.2427 36.7969 20.2734ZM34.4531 20.2734C34.4531 19.9504 34.716 19.6875 35.0391 19.6875C35.3621 19.6875 35.625 19.9504 35.625 20.2734C35.625 20.5965 35.3621 20.8594 35.0391 20.8594C34.716 20.8594 34.4531 20.5965 34.4531 20.2734Z" fill="#77CB87"></path><path d="M39.7266 23.203C38.7573 23.203 37.9688 23.9916 37.9688 24.9608C37.9688 25.9301 38.7573 26.7186 39.7266 26.7186C40.6958 26.7186 41.4844 25.9301 41.4844 24.9608C41.4844 23.9916 40.6958 23.203 39.7266 23.203ZM39.7266 25.5468C39.4035 25.5468 39.1406 25.2839 39.1406 24.9608C39.1406 24.6377 39.4035 24.3749 39.7266 24.3749C40.0496 24.3749 40.3125 24.6377 40.3125 24.9608C40.3125 25.2839 40.0496 25.5468 39.7266 25.5468Z" fill="#77CB87"></path><path d="M39.7051 18.5942C39.4248 18.4324 39.0665 18.5285 38.9047 18.8087L34.8452 25.8399C34.6834 26.1202 34.7794 26.4785 35.0597 26.6403C35.152 26.6936 35.2527 26.7189 35.3521 26.7189C35.5546 26.7189 35.7515 26.6138 35.8601 26.4258L39.9196 19.3946C40.0813 19.1143 39.9854 18.756 39.7051 18.5942Z" fill="#77CB87"></path><path d="M45.0009 22.6171C45.0009 18.417 41.5839 15 37.3838 15C33.1836 15 29.7666 18.417 29.7666 22.6171C29.7666 23.9385 30.108 25.2316 30.756 26.3732C30.7344 26.4536 30.7129 26.5342 30.6912 26.6146C29.8858 26.8105 29.0636 26.9448 28.2426 27.0136C27.9201 27.0406 27.6805 27.3239 27.7075 27.6464C27.7332 27.9522 27.9893 28.1835 28.2908 28.1835C28.3072 28.1835 28.3237 28.1828 28.3404 28.1813C29.0121 28.1251 29.6843 28.0273 30.3489 27.8913C30.3032 28.0618 30.2575 28.2318 30.2118 28.4024C30.1058 28.8004 30.2176 29.2107 30.5109 29.4998C30.7999 29.7844 31.2202 29.8938 31.6087 29.786C32.2816 29.6058 32.9545 29.4252 33.6272 29.2447C34.3938 29.6799 35.2288 29.9761 36.0945 30.1242V37.49C34.4032 36.0875 31.438 34.9812 28.4311 34.7094V33.8086C28.4311 33.2244 27.9558 32.7492 27.3716 32.7492H20.917V28.2391H23.0187C23.3423 28.2391 23.6047 27.9767 23.6047 27.6531C23.6047 27.3296 23.3423 27.0672 23.0187 27.0672H18.4334C16.5408 27.0672 15.001 28.6045 15.001 30.4941V32.3881C15.001 34.2777 16.5408 35.815 18.4334 35.815H18.8025C18.8588 36.3465 19.3096 36.762 19.8559 36.762H20.077L21.0647 42.863C21.0679 42.8827 21.072 42.9021 21.0772 42.9213C21.4356 44.2563 22.236 45.0001 23.2952 45C23.3809 45 23.4685 44.9951 23.5576 44.9853C23.6679 44.9731 23.7888 44.9621 23.9165 44.9505C24.8833 44.8627 26.2074 44.7424 26.8217 43.8616C27.137 43.4094 27.207 42.8451 27.0296 42.1842C26.7671 41.2068 26.5487 40.5425 26.356 39.9564C26.0568 39.0463 25.8137 38.3063 25.5176 36.762H27.3717C27.8936 36.762 28.3275 36.3824 28.4144 35.8851C30.0845 36.0441 31.7679 36.4744 33.2109 37.1174C34.5692 37.7226 35.6366 38.4931 36.1047 39.2004C36.1965 40.0517 36.9192 40.7168 37.7945 40.7168C38.7317 40.7168 39.4943 39.9543 39.4943 39.017V29.9366C42.6709 29.0192 45.0009 26.0853 45.0009 22.6171ZM16.1728 32.3881V30.4941C16.1728 29.2506 17.187 28.2391 18.4334 28.2391H19.7452V32.755C19.2128 32.8105 18.7964 33.2618 18.7964 33.8086V34.6431H18.4335C17.187 34.6431 16.1728 33.6315 16.1728 32.3881ZM25.2427 40.3224C25.4307 40.8941 25.6436 41.5421 25.8977 42.488C26.0236 42.9573 25.9008 43.1334 25.8604 43.1913C25.5582 43.6247 24.5064 43.7203 23.8104 43.7835C23.6747 43.7958 23.5462 43.8075 23.4289 43.8205C23.215 43.8444 22.5671 43.9157 22.2165 42.6452L21.2641 36.762H24.3249C24.6551 38.5347 24.9289 39.3678 25.2427 40.3224ZM27.2592 35.5901H19.9682V33.921H27.2592V35.5901ZM38.3223 39.017C38.3223 39.3081 38.0855 39.545 37.7944 39.545C37.5033 39.545 37.2665 39.3081 37.2665 39.017V30.2324C37.3056 30.2329 37.3446 30.2342 37.3838 30.2342C37.7015 30.2342 38.0147 30.2144 38.3223 30.1764V39.017ZM37.3838 29.0624C36.1928 29.0624 35.0294 28.7349 34.0194 28.1155C33.9264 28.0584 33.8202 28.029 33.713 28.029C33.6622 28.029 33.6112 28.0356 33.5611 28.049C32.828 28.2457 32.0948 28.4425 31.3616 28.6389C31.5582 27.9053 31.7548 27.1723 31.9515 26.4392C31.9932 26.2839 31.9692 26.1182 31.8851 25.981C31.2658 24.9713 30.9384 23.8081 30.9384 22.6171C30.9384 19.0632 33.8298 16.1719 37.3837 16.1719C40.9376 16.1719 43.8289 19.0632 43.8289 22.6171C43.829 26.171 40.9376 29.0624 37.3838 29.0624Z" fill="#77CB87"></path><path d="M25.6545 28.239C25.9781 28.239 26.2404 27.9766 26.2404 27.6531C26.2404 27.3295 25.9781 27.0671 25.6545 27.0671H25.6541C25.3304 27.0671 25.0684 27.3295 25.0684 27.6531C25.0684 27.9766 25.3309 28.239 25.6545 28.239Z" fill="#77CB87"></path></g><defs><clipPath id="clip0_54_2083"><rect width="30" height="30" fill="white" transform="translate(15 15)"></rect></clipPath></defs></svg>